<svg xmlns="http://www.w3.org/2000/svg" viewBox="0 0 48 48" shape-rendering="crispEdges"><rect width="48" height="48" fill="#cc143c"/><rect x="19" y="10" width="1" height="1" fill="#ffc967"/><rect x="20" y="10" width="2" height="1" fill="#fffffb"/><rect x="25" y="10" width="1" height="1" fill="#ffc967"/><rect x="26" y="10" width="2" height="1" fill="#fffffb"/><rect x="19" y="11" width="1" height="1" fill="#ffc967"/><rect x="20" y="11" width="2" height="1" fill="#fffffb"/><rect x="25" y="11" width="1" height="1" fill="#ffc967"/><rect x="26" y="11" width="2" height="1" fill="#fffffb"/><rect x="16" y="12" width="6" height="1" fill="#fffffb"/><rect x="25" y="12" width="1" height="1" fill="#ffc967"/><rect x="26" y="12" width="5" height="1" fill="#fffffb"/><rect x="31" y="12" width="1" height="1" fill="#ff005c"/><rect x="16" y="13" width="6" height="1" fill="#fffffb"/><rect x="25" y="13" width="1" height="1" fill="#ffc967"/><rect x="26" y="13" width="5" height="1" fill="#fffffb"/><rect x="31" y="13" width="1" height="1" fill="#ff005c"/><rect x="16" y="14" width="3" height="1" fill="#fffffb"/><rect x="19" y="14" width="1" height="1" fill="#ff005c"/><rect x="28" y="14" width="3" height="1" fill="#fffffb"/><rect x="31" y="14" width="1" height="1" fill="#ff005c"/><rect x="16" y="15" width="3" height="1" fill="#fffffb"/><rect x="19" y="15" width="1" height="1" fill="#ff005c"/><rect x="28" y="15" width="3" height="1" fill="#fffffb"/><rect x="31" y="15" width="1" height="1" fill="#ff005c"/><rect x="12" y="16" width="1" height="1" fill="#fffffb"/><rect x="13" y="16" width="1" height="1" fill="#ff005c"/><rect x="34" y="16" width="2" height="1" fill="#fffffb"/><rect x="12" y="17" width="1" height="1" fill="#fffffb"/><rect x="13" y="17" width="1" height="1" fill="#ff005c"/><rect x="34" y="17" width="2" height="1" fill="#fffffb"/><rect x="12" y="18" width="4" height="1" fill="#fffffb"/><rect x="19" y="18" width="1" height="1" fill="#ffc967"/><rect x="20" y="18" width="8" height="1" fill="#fffffb"/><rect x="31" y="18" width="1" height="1" fill="#ffc967"/><rect x="32" y="18" width="4" height="1" fill="#fffffb"/><rect x="12" y="19" width="4" height="1" fill="#fffffb"/><rect x="19" y="19" width="1" height="1" fill="#ffc967"/><rect x="20" y="19" width="8" height="1" fill="#fffffb"/><rect x="31" y="19" width="1" height="1" fill="#ffc967"/><rect x="32" y="19" width="4" height="1" fill="#fffffb"/><rect x="9" y="20" width="1" height="1" fill="#ffc967"/><rect x="10" y="20" width="6" height="1" fill="#fffffb"/><rect x="18" y="20" width="12" height="1" fill="#fffffb"/><rect x="31" y="20" width="1" height="1" fill="#ffc967"/><rect x="32" y="20" width="6" height="1" fill="#fffffb"/><rect x="38" y="20" width="1" height="1" fill="#ff005c"/><rect x="9" y="21" width="1" height="1" fill="#ffc967"/><rect x="10" y="21" width="6" height="1" fill="#fffffb"/><rect x="18" y="21" width="12" height="1" fill="#fffffb"/><rect x="31" y="21" width="1" height="1" fill="#ffc967"/><rect x="32" y="21" width="6" height="1" fill="#fffffb"/><rect x="38" y="21" width="1" height="1" fill="#ff005c"/><rect x="9" y="22" width="1" height="1" fill="#ffc967"/><rect x="10" y="22" width="6" height="1" fill="#fffffb"/><rect x="18" y="22" width="12" height="1" fill="#fffffb"/><rect x="31" y="22" width="1" height="1" fill="#ffc967"/><rect x="32" y="22" width="6" height="1" fill="#fffffb"/><rect x="38" y="22" width="1" height="1" fill="#ff005c"/><rect x="9" y="23" width="1" height="1" fill="#ffc967"/><rect x="10" y="23" width="6" height="1" fill="#fffffb"/><rect x="18" y="23" width="12" height="1" fill="#fffffb"/><rect x="31" y="23" width="1" height="1" fill="#ffc967"/><rect x="32" y="23" width="6" height="1" fill="#fffffb"/><rect x="38" y="23" width="1" height="1" fill="#ff005c"/><rect x="9" y="24" width="1" height="1" fill="#ffc967"/><rect x="10" y="24" width="3" height="1" fill="#fffffb"/><rect x="13" y="24" width="1" height="1" fill="#ff005c"/><rect x="18" y="24" width="12" height="1" fill="#fffffb"/><rect x="34" y="24" width="4" height="1" fill="#fffffb"/><rect x="38" y="24" width="1" height="1" fill="#ff005c"/><rect x="9" y="25" width="1" height="1" fill="#ffc967"/><rect x="10" y="25" width="3" height="1" fill="#fffffb"/><rect x="13" y="25" width="1" height="1" fill="#ff005c"/><rect x="18" y="25" width="12" height="1" fill="#fffffb"/><rect x="34" y="25" width="4" height="1" fill="#fffffb"/><rect x="38" y="25" width="1" height="1" fill="#ff005c"/><rect x="19" y="26" width="1" height="1" fill="#ffffa4"/><rect x="20" y="26" width="8" height="1" fill="#fffffb"/><rect x="19" y="27" width="1" height="1" fill="#ffffa4"/><rect x="20" y="27" width="8" height="1" fill="#fffffb"/><rect x="16" y="30" width="3" height="1" fill="#fffffb"/><rect x="19" y="30" width="1" height="1" fill="#5639cc"/><rect x="20" y="30" width="1" height="1" fill="#2e0000"/><rect x="21" y="30" width="1" height="1" fill="#ff6230"/><rect x="22" y="30" width="3" height="1" fill="#fffffb"/><rect x="25" y="30" width="1" height="1" fill="#5639cc"/><rect x="26" y="30" width="1" height="1" fill="#2e0000"/><rect x="27" y="30" width="1" height="1" fill="#ff6230"/><rect x="28" y="30" width="3" height="1" fill="#fffffb"/><rect x="31" y="30" width="1" height="1" fill="#ff005c"/><rect x="16" y="31" width="3" height="1" fill="#fffffb"/><rect x="19" y="31" width="1" height="1" fill="#5639cc"/><rect x="20" y="31" width="1" height="1" fill="#2e0000"/><rect x="21" y="31" width="1" height="1" fill="#ff6230"/><rect x="22" y="31" width="3" height="1" fill="#fffffb"/><rect x="25" y="31" width="1" height="1" fill="#5639cc"/><rect x="26" y="31" width="1" height="1" fill="#2e0000"/><rect x="27" y="31" width="1" height="1" fill="#ff6230"/><rect x="28" y="31" width="3" height="1" fill="#fffffb"/><rect x="31" y="31" width="1" height="1" fill="#ff005c"/><rect x="13" y="32" width="1" height="1" fill="#ffc967"/><rect x="14" y="32" width="5" height="1" fill="#fffffb"/><rect x="19" y="32" width="1" height="1" fill="#5639cc"/><rect x="20" y="32" width="1" height="1" fill="#2e0000"/><rect x="21" y="32" width="1" height="1" fill="#ff6230"/><rect x="22" y="32" width="3" height="1" fill="#fffffb"/><rect x="25" y="32" width="1" height="1" fill="#5639cc"/><rect x="26" y="32" width="1" height="1" fill="#2e0000"/><rect x="27" y="32" width="1" height="1" fill="#ff6230"/><rect x="28" y="32" width="6" height="1" fill="#fffffb"/><rect x="13" y="33" width="1" height="1" fill="#ffc967"/><rect x="14" y="33" width="5" height="1" fill="#fffffb"/><rect x="19" y="33" width="1" height="1" fill="#5639cc"/><rect x="20" y="33" width="1" height="1" fill="#2e0000"/><rect x="21" y="33" width="1" height="1" fill="#ff6230"/><rect x="22" y="33" width="3" height="1" fill="#fffffb"/><rect x="25" y="33" width="1" height="1" fill="#5639cc"/><rect x="26" y="33" width="1" height="1" fill="#2e0000"/><rect x="27" y="33" width="1" height="1" fill="#ff6230"/><rect x="28" y="33" width="6" height="1" fill="#fffffb"/><rect x="13" y="34" width="1" height="1" fill="#ffc967"/><rect x="14" y="34" width="20" height="1" fill="#fffffb"/><rect x="13" y="35" width="1" height="1" fill="#ffc967"/><rect x="14" y="35" width="20" height="1" fill="#fffffb"/><rect x="16" y="36" width="15" height="1" fill="#fffffb"/><rect x="31" y="36" width="1" height="1" fill="#ff005c"/><rect x="16" y="37" width="15" height="1" fill="#fffffb"/><rect x="31" y="37" width="1" height="1" fill="#ff005c"/></svg>
