<?xml version="1.0" encoding="UTF-8"?>
<svg version="1.1" xmlns="http://www.w3.org/2000/svg" width="576" height="576">
<path d="M0 0 C190.08 0 380.16 0 576 0 C576 190.08 576 380.16 576 576 C385.92 576 195.84 576 0 576 C0 385.92 0 195.84 0 0 Z " fill="#CB133B" transform="translate(0,0)"/>
<path d="M0 0 C17.82 0 35.64 0 54 0 C54 16.17 54 32.34 54 49 C59.94 49 65.88 49 72 49 C72 32.83 72 16.66 72 0 C89.82 0 107.64 0 126 0 C126 16.17 126 32.34 126 49 C131.94 49 137.88 49 144 49 C144 32.83 144 16.66 144 0 C158.85 0 173.7 0 189 0 C189 7.26 189 14.52 189 22 C197.91 22 206.82 22 216 22 C216 38.5 216 55 216 72 C207.09 72 198.18 72 189 72 C189 80.91 189 89.82 189 99 C126.63 99 64.26 99 0 99 C0 90.09 0 81.18 0 72 C-8.91 72 -17.82 72 -27 72 C-27 55.5 -27 39 -27 22 C-18.09 22 -9.18 22 0 22 C0 14.74 0 7.48 0 0 Z " fill="#FEFCE8" transform="translate(189,360)"/>
<path d="M0 0 C32.67 0 65.34 0 99 0 C99 7.26 99 14.52 99 22 C106.59 22 114.18 22 122 22 C122 46.09 122 70.18 122 95 C114.41 95 106.82 95 99 95 C99 103.91 99 112.82 99 122 C66.33 122 33.66 122 0 122 C0 113.09 0 104.18 0 95 C-7.59 95 -15.18 95 -23 95 C-23 70.91 -23 46.82 -23 22 C-15.41 22 -7.82 22 0 22 C0 14.74 0 7.48 0 0 Z " fill="#FEFBE7" transform="translate(234,216)"/>
<path d="M0 0 C7.59 0 15.18 0 23 0 C23 7.59 23 15.18 23 23 C31.91 23 40.82 23 50 23 C50 46.76 50 70.52 50 95 C41.09 95 32.18 95 23 95 C23 102.59 23 110.18 23 118 C6.5 118 -10 118 -27 118 C-27 93.91 -27 69.82 -27 45 C-18.09 45 -9.18 45 0 45 C0 30.15 0 15.3 0 0 Z " fill="#FEFAE6" transform="translate(139,193)"/>
<path d="M0 0 C4.29 0 8.58 0 13 0 C13.33 14.52 13.66 29.04 14 44 C26.87 44.495 26.87 44.495 40 45 C40 68.43 40 91.86 40 116 C26.8 116 13.6 116 0 116 C0 108.74 0 101.48 0 94 C-11.88 94 -23.76 94 -36 94 C-36 70.24 -36 46.48 -36 22 C-24.12 22 -12.24 22 0 22 C0 14.74 0 7.48 0 0 Z " fill="#FFFCE8" transform="translate(414,194)"/>
<path d="M0 0 C8.91 0 17.82 0 27 0 C27 8.91 27 17.82 27 27 C41.85 27 56.7 27 72 27 C72 43.5 72 60 72 77 C57.15 77 42.3 77 27 77 C27 68.09 27 59.18 27 50 C18.09 50 9.18 50 0 50 C0 33.5 0 17 0 0 Z " fill="#FFFCE8" transform="translate(306,117)"/>
<path d="M0 0 C8.91 0 17.82 0 27 0 C27 16.5 27 33 27 50 C18.09 50 9.18 50 0 50 C0 58.91 0 67.82 0 77 C-14.85 77 -29.7 77 -45 77 C-45 60.5 -45 44 -45 27 C-30.15 27 -15.3 27 0 27 C0 18.09 0 9.18 0 0 Z " fill="#FEFAE7" transform="translate(234,117)"/>
<path d="M0 0 C10.56 0 21.12 0 32 0 C32 14.85 32 29.7 32 45 C37.94 45 43.88 45 50 45 C50 69.09 50 93.18 50 118 C33.5 118 17 118 0 118 C0 110.41 0 102.82 0 95 C2.97 95 5.94 95 9 95 C9 102.26 9 109.52 9 117 C22.2 117 35.4 117 49 117 C49 93.57 49 70.14 49 46 C40.42 46 31.84 46 23 46 C22 45 22 45 21.87974548 43.20933533 C21.8830764 42.04018333 21.8830764 42.04018333 21.88647461 40.84741211 C21.88655014 39.96657455 21.88662567 39.085737 21.88670349 38.1782074 C21.89444542 36.74227989 21.89444542 36.74227989 21.90234375 35.27734375 C21.9037587 34.30213272 21.90517365 33.32692169 21.90663147 32.32215881 C21.91224867 29.19390857 21.92480407 26.06572877 21.9375 22.9375 C21.94251278 20.82226666 21.94707607 18.70703219 21.95117188 16.59179688 C21.96222369 11.39450393 21.97949984 6.19726392 22 1 C17.71 1 13.42 1 9 1 C9 8.26 9 15.52 9 23 C6.03 23 3.06 23 0 23 C0 15.41 0 7.82 0 0 Z " fill="#FB016D" transform="translate(405,193)"/>
<path d="M0 0 C5.94 0 11.88 0 18 0 C18 16.17 18 32.34 18 49 C23.94 49 29.88 49 36 49 C36 49.33 36 49.66 36 50 C24.12 50 12.24 50 0 50 C0 33.5 0 17 0 0 Z " fill="#64CCAE" transform="translate(297,360)"/>
<path d="M0 0 C5.94 0 11.88 0 18 0 C18 16.17 18 32.34 18 49 C23.94 49 29.88 49 36 49 C36 49.33 36 49.66 36 50 C24.12 50 12.24 50 0 50 C0 33.5 0 17 0 0 Z " fill="#64CCAE" transform="translate(225,360)"/>
<path d="M0 0 C2.97 0 5.94 0 9 0 C9 16.17 9 32.34 9 49 C17.91 49 26.82 49 36 49 C36 57.91 36 66.82 36 76 C47.88 76 59.76 76 72 76 C72 76.33 72 76.66 72 77 C57.15 77 42.3 77 27 77 C27 68.09 27 59.18 27 50 C18.09 50 9.18 50 0 50 C0 33.5 0 17 0 0 Z " fill="#FEB75D" transform="translate(306,117)"/>
<path d="M0 0 C2.97 0 5.94 0 9 0 C9 7.59 9 15.18 9 23 C0.09 23 -8.82 23 -18 23 C-18 39.17 -18 55.34 -18 72 C-20.97 72 -23.94 72 -27 72 C-27 55.5 -27 39 -27 22 C-18.09 22 -9.18 22 0 22 C0 14.74 0 7.48 0 0 Z " fill="#FEB760" transform="translate(189,360)"/>
<path d="M0 0 C2.97 0 5.94 0 9 0 C9 24.09 9 48.18 9 73 C6.03 73 3.06 73 0 73 C0 48.91 0 24.82 0 0 Z " fill="#FB016D" transform="translate(455,238)"/>
<path d="M0 0 C2.97 0 5.94 0 9 0 C9 24.09 9 48.18 9 73 C6.03 73 3.06 73 0 73 C0 48.91 0 24.82 0 0 Z " fill="#FB016D" transform="translate(356,238)"/>
<path d="M0 0 C2.97 0 5.94 0 9 0 C9 24.09 9 48.18 9 73 C6.03 73 3.06 73 0 73 C0 48.91 0 24.82 0 0 Z " fill="#FBB15D" transform="translate(211,238)"/>
<path d="M0 0 C2.97 0 5.94 0 9 0 C9 24.09 9 48.18 9 73 C6.03 73 3.06 73 0 73 C0 48.91 0 24.82 0 0 Z " fill="#FBB15D" transform="translate(112,238)"/>
<path d="M0 0 C2.97 0 5.94 0 9 0 C9 23.76 9 47.52 9 72 C6.03 72 3.06 72 0 72 C0 48.24 0 24.48 0 0 Z " fill="#FFB85D" transform="translate(378,216)"/>
<path d="M0 0 C2.97 0 5.94 0 9 0 C9 23.76 9 47.52 9 72 C6.03 72 3.06 72 0 72 C0 48.24 0 24.48 0 0 Z " fill="#FF006E" transform="translate(189,216)"/>
<path d="M0 0 C2.97 0 5.94 0 9 0 C9 16.5 9 33 9 50 C6.03 50 3.06 50 0 50 C0 33.5 0 17 0 0 Z " fill="#FE006E" transform="translate(405,382)"/>
<path d="M0 0 C2.97 0 5.94 0 9 0 C9 16.5 9 33 9 50 C6.03 50 3.06 50 0 50 C0 33.5 0 17 0 0 Z " fill="#FEB75D" transform="translate(189,144)"/>
<path d="M0 0 C2.97 0 5.94 0 9 0 C9 16.5 9 33 9 50 C6.03 50 3.06 50 0 50 C0 33.5 0 17 0 0 Z " fill="#FE006E" transform="translate(378,144)"/>
<path d="M0 0 C2.97 0 5.94 0 9 0 C9 16.5 9 33 9 50 C6.03 50 3.06 50 0 50 C0 33.5 0 17 0 0 Z " fill="#FE006E" transform="translate(261,117)"/>
<path d="M0 0 C2.97 0 5.94 0 9 0 C9 16.17 9 32.34 9 49 C6.03 49 3.06 49 0 49 C0 32.83 0 16.66 0 0 Z " fill="#FFF6A0" transform="translate(333,360)"/>
<path d="M0 0 C2.97 0 5.94 0 9 0 C9 16.17 9 32.34 9 49 C6.03 49 3.06 49 0 49 C0 32.83 0 16.66 0 0 Z " fill="#2A0000" transform="translate(315,360)"/>
<path d="M0 0 C2.97 0 5.94 0 9 0 C9 16.17 9 32.34 9 49 C6.03 49 3.06 49 0 49 C0 32.83 0 16.66 0 0 Z " fill="#5653CA" transform="translate(306,360)"/>
<path d="M0 0 C2.97 0 5.94 0 9 0 C9 16.17 9 32.34 9 49 C6.03 49 3.06 49 0 49 C0 32.83 0 16.66 0 0 Z " fill="#FFF6A0" transform="translate(261,360)"/>
<path d="M0 0 C2.97 0 5.94 0 9 0 C9 16.17 9 32.34 9 49 C6.03 49 3.06 49 0 49 C0 32.83 0 16.66 0 0 Z " fill="#2A0000" transform="translate(243,360)"/>
<path d="M0 0 C2.97 0 5.94 0 9 0 C9 16.17 9 32.34 9 49 C6.03 49 3.06 49 0 49 C0 32.83 0 16.66 0 0 Z " fill="#5653CA" transform="translate(234,360)"/>
<path d="M0 0 C2.97 0 5.94 0 9 0 C9 16.17 9 32.34 9 49 C6.03 49 3.06 49 0 49 C0 32.83 0 16.66 0 0 Z " fill="#F45229" transform="translate(324,360)"/>
<path d="M0 0 C2.97 0 5.94 0 9 0 C9 16.17 9 32.34 9 49 C6.03 49 3.06 49 0 49 C0 32.83 0 16.66 0 0 Z " fill="#F45229" transform="translate(252,360)"/>
<path d="M0 0 C2.97 0 5.94 0 9 0 C9 14.85 9 29.7 9 45 C6.03 45 3.06 45 0 45 C0 30.15 0 15.3 0 0 Z " fill="#FBB15D" transform="translate(139,193)"/>
<path d="M0 0 C8.91 0 17.82 0 27 0 C27 24.09 27 48.18 27 73 C10.5 73 -6 73 -23 73 C-23 65.41 -23 57.82 -23 50 C-20.03 50 -17.06 50 -14 50 C-14 57.26 -14 64.52 -14 72 C-0.8 72 12.4 72 26 72 C26 48.57 26 25.14 26 1 C17.42 1 8.84 1 0 1 C0 0.67 0 0.34 0 0 Z " fill="#FAB77E" transform="translate(428,238)"/>
<path d="M0 0 C2.97 0 5.94 0 9 0 C9 8.58 9 17.16 9 26 C38.7 26 68.4 26 99 26 C99 26.33 99 26.66 99 27 C66.33 27 33.66 27 0 27 C0 18.09 0 9.18 0 0 Z " fill="#F7E4A3" transform="translate(234,311)"/>
<path d="M0 0 C8.91 0 17.82 0 27 0 C27 8.91 27 17.82 27 27 C38.88 27 50.76 27 63 27 C63 27.33 63 27.66 63 28 C48.15 28 33.3 28 18 28 C18 19.09 18 10.18 18 1 C12.06 1 6.12 1 0 1 C0 0.67 0 0.34 0 0 Z " fill="#FAB86D" transform="translate(315,166)"/>
<path d="M0 0 C7.59 0 15.18 0 23 0 C23 14.85 23 29.7 23 45 C22.67 45 22.34 45 22 45 C22 30.48 22 15.96 22 1 C17.71 1 13.42 1 9 1 C9 8.26 9 15.52 9 23 C6.03 23 3.06 23 0 23 C0 15.41 0 7.82 0 0 Z " fill="#FCB66F" transform="translate(405,193)"/>
<path d="M0 0 C2.97 0 5.94 0 9 0 C9 8.91 9 17.82 9 27 C6.03 27 3.06 27 0 27 C0 18.09 0 9.18 0 0 Z " fill="#FF006D" transform="translate(378,432)"/>
<path d="M0 0 C2.97 0 5.94 0 9 0 C9 8.91 9 17.82 9 27 C6.03 27 3.06 27 0 27 C0 18.09 0 9.18 0 0 Z " fill="#FFB75C" transform="translate(189,432)"/>
<path d="M0 0 C2.97 0 5.94 0 9 0 C9 8.91 9 17.82 9 27 C6.03 27 3.06 27 0 27 C0 18.09 0 9.18 0 0 Z " fill="#FE006D" transform="translate(333,311)"/>
<path d="M0 0 C2.97 0 5.94 0 9 0 C9 8.91 9 17.82 9 27 C6.03 27 3.06 27 0 27 C0 18.09 0 9.18 0 0 Z " fill="#FE006D" transform="translate(234,167)"/>
<path d="M0 0 C2.97 0 5.94 0 9 0 C9 8.91 9 17.82 9 27 C6.03 27 3.06 27 0 27 C0 18.09 0 9.18 0 0 Z " fill="#FFB75C" transform="translate(234,117)"/>
<path d="M0 0 C2.97 0 5.94 0 9 0 C9 8.91 9 17.82 9 27 C6.03 27 3.06 27 0 27 C0 18.09 0 9.18 0 0 Z " fill="#FF006D" transform="translate(333,117)"/>
<path d="M0 0 C2.97 0 5.94 0 9 0 C9 7.59 9 15.18 9 23 C6.03 23 3.06 23 0 23 C0 15.41 0 7.82 0 0 Z " fill="#FD006C" transform="translate(162,288)"/>
<path d="M0 0 C2.97 0 5.94 0 9 0 C9 7.59 9 15.18 9 23 C6.03 23 3.06 23 0 23 C0 15.41 0 7.82 0 0 Z " fill="#FD006C" transform="translate(162,193)"/>
<path d="M0 0 C2.97 0 5.94 0 9 0 C9 7.26 9 14.52 9 22 C6.03 22 3.06 22 0 22 C0 14.74 0 7.48 0 0 Z " fill="#FF006E" transform="translate(378,360)"/>
<path d="M0 0 C2.97 0 5.94 0 9 0 C9 7.26 9 14.52 9 22 C6.03 22 3.06 22 0 22 C0 14.74 0 7.48 0 0 Z " fill="#FFB85C" transform="translate(234,216)"/>
<path d="M0 0 C2.97 0 5.94 0 9 0 C9 7.26 9 14.52 9 22 C6.03 22 3.06 22 0 22 C0 14.74 0 7.48 0 0 Z " fill="#FF006E" transform="translate(333,216)"/>
</svg>
